<?xml version="1.0" encoding="utf-8"?>
<!-- Generator: Adobe Illustrator 27.5.0, SVG Export Plug-In . SVG Version: 6.00 Build 0)  -->
<svg version="1.1" xmlns="http://www.w3.org/2000/svg" xmlns:xlink="http://www.w3.org/1999/xlink" x="0px" y="0px"
	 viewBox="0 0 500 500" style="enable-background:new 0 0 500 500;" xml:space="preserve">
<g id="Background_Simple">
	<g>
		<path style="fill:#92E3A9;" d="M437.397,314.93c0,0,51.096-57.415,34.851-157.332C456.002,57.681,372.579,20.875,317.219,40.111
			c-55.36,19.236-67.813,52.695-113.031,71.843s-131.063,5.988-174.009,70.282c-42.945,64.293,11.876,170.828,81.668,237.629
			C181.639,486.665,359.8,444.836,437.397,314.93z"/>
		<path style="opacity:0.7;fill:#FFFFFF;" d="M437.397,314.93c0,0,51.096-57.415,34.851-157.332
			C456.002,57.681,372.579,20.875,317.219,40.111c-55.36,19.236-67.813,52.695-113.031,71.843s-131.063,5.988-174.009,70.282
			c-42.945,64.293,11.876,170.828,81.668,237.629C181.639,486.665,359.8,444.836,437.397,314.93z"/>
	</g>
</g>
<g id="Line_1_">
	<line style="fill:none;stroke:#263238;stroke-miterlimit:10;" x1="61.58" y1="476.25" x2="461.734" y2="476.25"/>
</g>
<g id="Plant">
	<g>
		<g>
			
				<line style="fill:none;stroke:#263238;stroke-width:2;stroke-miterlimit:10;" x1="123.672" y1="324.263" x2="139.552" y2="476.055"/>
			<g>
				<g>
					
						<line style="fill:none;stroke:#263238;stroke-width:2;stroke-miterlimit:10;" x1="136.734" y1="444.91" x2="129.675" y2="437.454"/>
					<path style="fill:#92E3A9;stroke:#263238;stroke-miterlimit:10;" d="M131.819,439.688c0,0,0.202-3.298-2.81-5.988
						c-1.812-1.618-11.347-5.63-12.252-2.271C115.773,435.082,125.534,442.255,131.819,439.688z"/>
					
						<line style="fill:none;stroke:#263238;stroke-width:0.5;stroke-miterlimit:10;" x1="131.819" y1="439.688" x2="122.741" y2="434.031"/>
				</g>
				<g>
					
						<line style="fill:none;stroke:#263238;stroke-width:2;stroke-miterlimit:10;" x1="138.504" y1="461.878" x2="131.445" y2="454.422"/>
					<path style="fill:#92E3A9;stroke:#263238;stroke-miterlimit:10;" d="M133.59,456.656c0,0,0.202-3.298-2.809-5.988
						c-1.812-1.618-11.348-5.63-12.252-2.271C117.544,452.05,127.304,459.224,133.59,456.656z"/>
					
						<line style="fill:none;stroke:#263238;stroke-width:0.5;stroke-miterlimit:10;" x1="133.59" y1="456.656" x2="124.512" y2="450.999"/>
				</g>
				<g>
					
						<line style="fill:none;stroke:#263238;stroke-width:2;stroke-miterlimit:10;" x1="132.412" y1="403.504" x2="125.354" y2="396.048"/>
					<path style="fill:#92E3A9;stroke:#263238;stroke-miterlimit:10;" d="M127.498,398.282c0,0,0.202-3.298-2.81-5.988
						c-1.812-1.618-11.347-5.63-12.252-2.271C111.452,393.676,121.212,400.85,127.498,398.282z"/>
					
						<line style="fill:none;stroke:#263238;stroke-width:0.5;stroke-miterlimit:10;" x1="127.498" y1="398.282" x2="118.42" y2="392.625"/>
				</g>
				<g>
					
						<line style="fill:none;stroke:#263238;stroke-width:2;stroke-miterlimit:10;" x1="134.183" y1="420.472" x2="127.124" y2="413.017"/>
					<path style="fill:#92E3A9;stroke:#263238;stroke-miterlimit:10;" d="M129.269,415.25c0,0,0.202-3.298-2.809-5.988
						c-1.812-1.618-11.348-5.63-12.252-2.271C113.223,410.644,122.983,417.818,129.269,415.25z"/>
					
						<line style="fill:none;stroke:#263238;stroke-width:0.5;stroke-miterlimit:10;" x1="129.269" y1="415.25" x2="120.191" y2="409.593"/>
				</g>
				<g>
					
						<line style="fill:none;stroke:#263238;stroke-width:2;stroke-miterlimit:10;" x1="129.536" y1="375.94" x2="122.477" y2="368.485"/>
					<path style="fill:#92E3A9;stroke:#263238;stroke-miterlimit:10;" d="M124.622,370.719c0,0,0.202-3.298-2.809-5.988
						c-1.812-1.618-11.348-5.63-12.252-2.271C108.576,366.112,118.336,373.286,124.622,370.719z"/>
					
						<line style="fill:none;stroke:#263238;stroke-width:0.5;stroke-miterlimit:10;" x1="124.622" y1="370.719" x2="115.544" y2="365.061"/>
				</g>
				<g>
					
						<line style="fill:none;stroke:#263238;stroke-width:2;stroke-miterlimit:10;" x1="126.647" y1="348.256" x2="119.588" y2="340.801"/>
					<path style="fill:#92E3A9;stroke:#263238;stroke-miterlimit:10;" d="M121.732,343.034c0,0,0.202-3.298-2.81-5.987
						c-1.812-1.618-11.347-5.63-12.252-2.271C105.686,338.428,115.447,345.602,121.732,343.034z"/>
					
						<line style="fill:none;stroke:#263238;stroke-width:0.5;stroke-miterlimit:10;" x1="121.732" y1="343.034" x2="112.654" y2="337.377"/>
				</g>
				<g>
					
						<line style="fill:none;stroke:#263238;stroke-width:2;stroke-miterlimit:10;" x1="135.547" y1="434.87" x2="140.914" y2="426.118"/>
					<path style="fill:#92E3A9;stroke:#263238;stroke-miterlimit:10;" d="M139.277,428.746c0,0-0.879-3.185,1.513-6.439
						c1.439-1.957,9.941-7.851,11.519-4.752C154.026,420.926,145.958,429.961,139.277,428.746z"/>
					
						<line style="fill:none;stroke:#263238;stroke-width:0.5;stroke-miterlimit:10;" x1="139.277" y1="428.746" x2="147.452" y2="420.933"/>
				</g>
				<g>
					
						<line style="fill:none;stroke:#263238;stroke-width:2;stroke-miterlimit:10;" x1="130.887" y1="390.218" x2="136.254" y2="381.465"/>
					<path style="fill:#92E3A9;stroke:#263238;stroke-miterlimit:10;" d="M134.617,384.094c0,0-0.879-3.185,1.513-6.439
						c1.439-1.957,9.941-7.851,11.519-4.752C149.366,376.274,141.298,385.308,134.617,384.094z"/>
					
						<line style="fill:none;stroke:#263238;stroke-width:0.5;stroke-miterlimit:10;" x1="134.617" y1="384.094" x2="142.792" y2="376.281"/>
				</g>
				<g>
					
						<line style="fill:none;stroke:#263238;stroke-width:2;stroke-miterlimit:10;" x1="128.839" y1="370.595" x2="134.207" y2="361.842"/>
					<path style="fill:#92E3A9;stroke:#263238;stroke-miterlimit:10;" d="M132.569,364.471c0,0-0.879-3.185,1.513-6.439
						c1.439-1.957,9.941-7.851,11.519-4.752C147.318,356.651,139.25,365.685,132.569,364.471z"/>
					
						<line style="fill:none;stroke:#263238;stroke-width:0.5;stroke-miterlimit:10;" x1="132.569" y1="364.471" x2="140.744" y2="356.658"/>
				</g>
				<g>
					
						<line style="fill:none;stroke:#263238;stroke-width:2;stroke-miterlimit:10;" x1="125.837" y1="341.827" x2="131.204" y2="333.075"/>
					<path style="fill:#92E3A9;stroke:#263238;stroke-miterlimit:10;" d="M129.567,335.704c0,0-0.878-3.185,1.513-6.439
						c1.439-1.957,9.941-7.851,11.519-4.752C144.316,327.884,136.248,336.918,129.567,335.704z"/>
					
						<line style="fill:none;stroke:#263238;stroke-width:0.5;stroke-miterlimit:10;" x1="129.567" y1="335.704" x2="137.741" y2="327.891"/>
					<path style="fill:#92E3A9;stroke:#263238;stroke-miterlimit:10;" d="M123.541,323.435c0,0-0.878-3.185,1.513-6.439
						c1.439-1.957,9.941-7.851,11.519-4.752C138.291,315.615,130.222,324.649,123.541,323.435z"/>
					
						<line style="fill:none;stroke:#263238;stroke-width:0.5;stroke-miterlimit:10;" x1="123.541" y1="323.435" x2="131.716" y2="315.622"/>
					<path style="fill:#92E3A9;stroke:#263238;stroke-miterlimit:10;" d="M124.015,323.772c0,0-3.26,0.54-6.244-2.18
						c-1.796-1.636-6.766-10.709-3.518-11.954C117.785,308.284,125.923,317.255,124.015,323.772z"/>
					
						<line style="fill:none;stroke:#263238;stroke-width:0.5;stroke-miterlimit:10;" x1="124.015" y1="323.772" x2="117.102" y2="314.823"/>
				</g>
			</g>
		</g>
		<g>
			
				<line style="fill:none;stroke:#263238;stroke-width:2;stroke-miterlimit:10;" x1="164.741" y1="344.81" x2="151.607" y2="476.055"/>
			<g>
				<g>
					
						<line style="fill:none;stroke:#263238;stroke-width:2;stroke-miterlimit:10;" x1="152.681" y1="465.561" x2="147.309" y2="456.812"/>
					<path style="fill:#92E3A9;stroke:#263238;stroke-miterlimit:10;" d="M148.947,459.44c0,0,0.877-3.186-1.516-6.438
						c-1.44-1.957-9.945-7.846-11.522-4.746C134.193,451.628,142.267,460.658,148.947,459.44z"/>
					
						<line style="fill:none;stroke:#263238;stroke-width:0.5;stroke-miterlimit:10;" x1="148.947" y1="459.44" x2="141.229" y2="452.034"/>
				</g>
				<g>
					
						<line style="fill:none;stroke:#263238;stroke-width:2;stroke-miterlimit:10;" x1="156.978" y1="424.153" x2="151.605" y2="415.404"/>
					<path style="fill:#92E3A9;stroke:#263238;stroke-miterlimit:10;" d="M153.244,418.031c0,0,0.877-3.186-1.517-6.438
						c-1.44-1.957-9.945-7.845-11.522-4.745C138.49,410.22,146.564,419.25,153.244,418.031z"/>
					
						<line style="fill:none;stroke:#263238;stroke-width:0.5;stroke-miterlimit:10;" x1="153.244" y1="418.031" x2="145.525" y2="410.626"/>
				</g>
				<g>
					
						<line style="fill:none;stroke:#263238;stroke-width:2;stroke-miterlimit:10;" x1="155.217" y1="441.122" x2="149.844" y2="432.373"/>
					<path style="fill:#92E3A9;stroke:#263238;stroke-miterlimit:10;" d="M151.483,435c0,0,0.877-3.186-1.516-6.438
						c-1.44-1.957-9.945-7.845-11.522-4.745C136.729,427.189,144.803,436.219,151.483,435z"/>
					
						<line style="fill:none;stroke:#263238;stroke-width:0.5;stroke-miterlimit:10;" x1="151.483" y1="435" x2="143.764" y2="427.595"/>
				</g>
				<g>
					
						<line style="fill:none;stroke:#263238;stroke-width:2;stroke-miterlimit:10;" x1="159.838" y1="396.588" x2="154.465" y2="387.838"/>
					<path style="fill:#92E3A9;stroke:#263238;stroke-miterlimit:10;" d="M156.104,390.466c0,0,0.877-3.186-1.516-6.438
						c-1.44-1.957-9.945-7.846-11.522-4.745C141.351,382.654,149.424,391.684,156.104,390.466z"/>
					
						<line style="fill:none;stroke:#263238;stroke-width:0.5;stroke-miterlimit:10;" x1="156.104" y1="390.466" x2="148.386" y2="383.061"/>
				</g>
				<g>
					
						<line style="fill:none;stroke:#263238;stroke-width:2;stroke-miterlimit:10;" x1="162.711" y1="368.902" x2="157.338" y2="360.152"/>
					<path style="fill:#92E3A9;stroke:#263238;stroke-miterlimit:10;" d="M158.977,362.78c0,0,0.877-3.186-1.517-6.438
						c-1.44-1.956-9.945-7.845-11.522-4.745C144.223,354.969,152.297,363.998,158.977,362.78z"/>
					
						<line style="fill:none;stroke:#263238;stroke-width:0.5;stroke-miterlimit:10;" x1="158.977" y1="362.78" x2="151.258" y2="355.375"/>
				</g>
				<g>
					
						<line style="fill:none;stroke:#263238;stroke-width:2;stroke-miterlimit:10;" x1="153.587" y1="455.492" x2="160.641" y2="448.033"/>
					<path style="fill:#92E3A9;stroke:#263238;stroke-miterlimit:10;" d="M158.498,450.268c0,0-0.204-3.298,2.806-5.989
						c1.811-1.619,11.344-5.637,12.251-2.279C174.542,445.652,164.786,452.832,158.498,450.268z"/>
					
						<line style="fill:none;stroke:#263238;stroke-width:0.5;stroke-miterlimit:10;" x1="158.498" y1="450.268" x2="168.106" y2="444.305"/>
				</g>
				<g>
					
						<line style="fill:none;stroke:#263238;stroke-width:2;stroke-miterlimit:10;" x1="158.221" y1="410.837" x2="165.275" y2="403.378"/>
					<path style="fill:#92E3A9;stroke:#263238;stroke-miterlimit:10;" d="M163.132,405.613c0,0-0.204-3.298,2.806-5.989
						c1.811-1.619,11.344-5.636,12.251-2.279C179.175,400.997,169.419,408.177,163.132,405.613z"/>
					
						<line style="fill:none;stroke:#263238;stroke-width:0.5;stroke-miterlimit:10;" x1="163.132" y1="405.613" x2="172.74" y2="399.65"/>
				</g>
				<g>
					
						<line style="fill:none;stroke:#263238;stroke-width:2;stroke-miterlimit:10;" x1="160.257" y1="391.213" x2="167.311" y2="383.754"/>
					<path style="fill:#92E3A9;stroke:#263238;stroke-miterlimit:10;" d="M165.168,385.988c0,0-0.204-3.298,2.806-5.989
						c1.811-1.619,11.344-5.636,12.251-2.279C181.211,381.373,171.456,388.552,165.168,385.988z"/>
					
						<line style="fill:none;stroke:#263238;stroke-width:0.5;stroke-miterlimit:10;" x1="165.168" y1="385.988" x2="174.776" y2="380.026"/>
				</g>
				<g>
					
						<line style="fill:none;stroke:#263238;stroke-width:2;stroke-miterlimit:10;" x1="163.242" y1="362.444" x2="170.297" y2="354.984"/>
					<path style="fill:#92E3A9;stroke:#263238;stroke-miterlimit:10;" d="M168.154,357.219c0,0-0.204-3.298,2.806-5.989
						c1.811-1.619,11.344-5.636,12.251-2.279C184.197,352.604,174.441,359.783,168.154,357.219z"/>
					
						<line style="fill:none;stroke:#263238;stroke-width:0.5;stroke-miterlimit:10;" x1="168.154" y1="357.219" x2="177.761" y2="351.257"/>
					<path style="fill:#92E3A9;stroke:#263238;stroke-miterlimit:10;" d="M164.783,343.973c0,0-0.204-3.298,2.806-5.989
						c1.811-1.619,11.344-5.636,12.251-2.278C180.826,339.357,171.07,346.536,164.783,343.973z"/>
					
						<line style="fill:none;stroke:#263238;stroke-width:0.5;stroke-miterlimit:10;" x1="164.783" y1="343.973" x2="174.391" y2="338.01"/>
					<path style="fill:#92E3A9;stroke:#263238;stroke-miterlimit:10;" d="M165.177,344.4c0,0-3.301-0.143-5.662-3.418
						c-1.42-1.971-4.416-11.873-0.981-12.422C162.269,327.961,168.386,338.416,165.177,344.4z"/>
					
						<line style="fill:none;stroke:#263238;stroke-width:0.5;stroke-miterlimit:10;" x1="165.177" y1="344.4" x2="160.255" y2="334.22"/>
				</g>
			</g>
		</g>
		
			<line style="fill:none;stroke:#263238;stroke-width:2;stroke-miterlimit:10;" x1="146.998" y1="284.052" x2="146.026" y2="476.278"/>
		<g>
			<g>
				
					<line style="fill:none;stroke:#263238;stroke-width:2;stroke-miterlimit:10;" x1="147.148" y1="444.366" x2="140.901" y2="436.218"/>
				<path style="fill:#92E3A9;stroke:#263238;stroke-miterlimit:10;" d="M142.802,438.662c0,0,0.543-3.259-2.173-6.247
					c-1.634-1.797-10.702-6.777-11.95-3.531C127.321,432.415,136.284,440.564,142.802,438.662z"/>
				
					<line style="fill:none;stroke:#263238;stroke-width:0.5;stroke-miterlimit:10;" x1="142.802" y1="438.662" x2="134.361" y2="432.094"/>
			</g>
			<g>
				
					<line style="fill:none;stroke:#263238;stroke-width:2;stroke-miterlimit:10;" x1="147.148" y1="408.907" x2="140.901" y2="400.759"/>
				<path style="fill:#92E3A9;stroke:#263238;stroke-miterlimit:10;" d="M142.802,403.204c0,0,0.543-3.259-2.173-6.247
					c-1.634-1.797-10.702-6.777-11.95-3.531C127.321,396.957,136.284,405.105,142.802,403.204z"/>
				
					<line style="fill:none;stroke:#263238;stroke-width:0.5;stroke-miterlimit:10;" x1="142.802" y1="403.204" x2="134.361" y2="396.635"/>
			</g>
			<g>
				
					<line style="fill:none;stroke:#263238;stroke-width:2;stroke-miterlimit:10;" x1="147.148" y1="367.277" x2="140.901" y2="359.129"/>
				<path style="fill:#92E3A9;stroke:#263238;stroke-miterlimit:10;" d="M142.802,361.573c0,0,0.543-3.259-2.173-6.247
					c-1.634-1.797-10.702-6.777-11.95-3.531C127.321,355.326,136.284,363.474,142.802,361.573z"/>
				
					<line style="fill:none;stroke:#263238;stroke-width:0.5;stroke-miterlimit:10;" x1="142.802" y1="361.573" x2="134.361" y2="355.004"/>
			</g>
			<g>
				
					<line style="fill:none;stroke:#263238;stroke-width:2;stroke-miterlimit:10;" x1="147.148" y1="339.563" x2="140.901" y2="331.415"/>
				<path style="fill:#92E3A9;stroke:#263238;stroke-miterlimit:10;" d="M142.802,333.86c0,0,0.543-3.259-2.173-6.247
					c-1.634-1.798-10.702-6.777-11.95-3.531C127.321,327.613,136.284,335.761,142.802,333.86z"/>
				
					<line style="fill:none;stroke:#263238;stroke-width:0.5;stroke-miterlimit:10;" x1="142.802" y1="333.86" x2="134.361" y2="327.291"/>
			</g>
			<g>
				
					<line style="fill:none;stroke:#263238;stroke-width:2;stroke-miterlimit:10;" x1="147.148" y1="311.729" x2="140.901" y2="303.581"/>
				<path style="fill:#92E3A9;stroke:#263238;stroke-miterlimit:10;" d="M142.802,306.025c0,0,0.543-3.259-2.173-6.247
					c-1.634-1.798-10.702-6.777-11.95-3.531C127.321,299.779,136.284,307.927,142.802,306.025z"/>
				
					<line style="fill:none;stroke:#263238;stroke-width:0.5;stroke-miterlimit:10;" x1="142.802" y1="306.025" x2="134.361" y2="299.456"/>
			</g>
			<g>
				
					<line style="fill:none;stroke:#263238;stroke-width:2;stroke-miterlimit:10;" x1="147.01" y1="455.194" x2="153.257" y2="447.046"/>
				<path style="fill:#92E3A9;stroke:#263238;stroke-miterlimit:10;" d="M151.356,449.49c0,0-0.543-3.259,2.173-6.247
					c1.634-1.798,10.702-6.777,11.95-3.531C166.837,443.243,157.874,451.391,151.356,449.49z"/>
				
					<line style="fill:none;stroke:#263238;stroke-width:0.5;stroke-miterlimit:10;" x1="151.356" y1="449.49" x2="160.297" y2="442.568"/>
			</g>
			<g>
				
					<line style="fill:none;stroke:#263238;stroke-width:2;stroke-miterlimit:10;" x1="147.01" y1="398.799" x2="153.257" y2="390.651"/>
				<path style="fill:#92E3A9;stroke:#263238;stroke-miterlimit:10;" d="M151.356,393.095c0,0-0.543-3.259,2.173-6.247
					c1.634-1.797,10.702-6.777,11.95-3.531C166.837,386.848,157.874,394.996,151.356,393.095z"/>
				
					<line style="fill:none;stroke:#263238;stroke-width:0.5;stroke-miterlimit:10;" x1="151.356" y1="393.095" x2="160.297" y2="386.173"/>
			</g>
			<g>
				
					<line style="fill:none;stroke:#263238;stroke-width:2;stroke-miterlimit:10;" x1="147.01" y1="370.964" x2="153.257" y2="362.816"/>
				<path style="fill:#92E3A9;stroke:#263238;stroke-miterlimit:10;" d="M151.356,365.261c0,0-0.543-3.259,2.173-6.247
					c1.634-1.797,10.702-6.777,11.95-3.531C166.837,359.014,157.874,367.162,151.356,365.261z"/>
				
					<line style="fill:none;stroke:#263238;stroke-width:0.5;stroke-miterlimit:10;" x1="151.356" y1="365.261" x2="160.297" y2="358.338"/>
			</g>
			<g>
				
					<line style="fill:none;stroke:#263238;stroke-width:2;stroke-miterlimit:10;" x1="147.01" y1="334.174" x2="153.257" y2="326.026"/>
				<path style="fill:#92E3A9;stroke:#263238;stroke-miterlimit:10;" d="M151.356,328.471c0,0-0.543-3.259,2.173-6.247
					c1.634-1.798,10.702-6.777,11.95-3.531C166.837,322.224,157.874,330.372,151.356,328.471z"/>
				
					<line style="fill:none;stroke:#263238;stroke-width:0.5;stroke-miterlimit:10;" x1="151.356" y1="328.471" x2="160.297" y2="321.548"/>
			</g>
			<g>
				
					<line style="fill:none;stroke:#263238;stroke-width:2;stroke-miterlimit:10;" x1="147.01" y1="305.251" x2="153.257" y2="297.103"/>
				<path style="fill:#92E3A9;stroke:#263238;stroke-miterlimit:10;" d="M151.356,299.547c0,0-0.543-3.259,2.173-6.247
					c1.634-1.798,10.702-6.777,11.95-3.531C166.837,293.301,157.874,301.448,151.356,299.547z"/>
				
					<line style="fill:none;stroke:#263238;stroke-width:0.5;stroke-miterlimit:10;" x1="151.356" y1="299.547" x2="160.297" y2="292.625"/>
				<path style="fill:#92E3A9;stroke:#263238;stroke-miterlimit:10;" d="M146.636,286.719c0,0-0.543-3.259,2.173-6.247
					c1.634-1.797,10.702-6.777,11.95-3.531C162.117,280.472,153.154,288.62,146.636,286.719z"/>
				
					<line style="fill:none;stroke:#263238;stroke-width:0.5;stroke-miterlimit:10;" x1="146.636" y1="286.719" x2="155.577" y2="279.797"/>
				<path style="fill:#92E3A9;stroke:#263238;stroke-miterlimit:10;" d="M147.072,287.104c0,0-3.298,0.198-5.985-2.816
					c-1.616-1.814-5.617-11.353-2.258-12.255C142.483,271.053,149.646,280.821,147.072,287.104z"/>
				
					<line style="fill:none;stroke:#263238;stroke-width:0.5;stroke-miterlimit:10;" x1="147.072" y1="287.104" x2="141.126" y2="277.486"/>
			</g>
		</g>
	</g>
</g>
<g id="Character">
	<g>
		<polygon style="fill:#263238;stroke:#263238;stroke-miterlimit:10;" points="401.039,476.25 395.257,409.623 258.407,409.623 
			250.854,476.25 		"/>
		<path style="fill:#92E3A9;stroke:#263238;stroke-miterlimit:10;" d="M317.215,207.673c0,0-40.024,10.992-57.5,24.24
			c-17.475,13.247-29.595,26.777-26.777,52.426c2.819,25.649,21.14,95.832,21.14,95.832s-2.537,28.468-2.537,30.159
			c0,1.691-0.282,6.483,5.919,6.765c6.201,0.282,80.612,3.382,97.242,3.664c16.63,0.282,38.615-1.409,41.152-3.382
			c2.537-1.973,3.946-5.073,4.228-8.456c0.282-3.382,3.1-44.816,3.1-44.816l0.282-18.603c0,0,18.321-60.882,19.448-80.612
			c1.128-19.73-6.201-26.213-14.375-32.414c-8.174-6.201-33.606-16.699-47.353-20.858
			C347.439,207.459,317.215,207.673,317.215,207.673z"/>
		<path style="fill:none;stroke:#263238;stroke-miterlimit:10;" d="M327.087,302.266c-2.036,27.454-5.653,78.047-5.332,86.71
			c0.444,11.997-4.443,15.552-4.443,19.995"/>
		<path style="fill:none;stroke:#263238;stroke-miterlimit:10;" d="M328.42,284.558c0,0-0.36,4.676-0.912,12.062"/>
		<polygon style="fill:#263238;stroke:#263238;stroke-miterlimit:10;" points="346.283,319.825 348.842,350.024 363.174,349 		"/>
		<path style="fill:#263238;stroke:#263238;stroke-miterlimit:10;" d="M332.703,372.483c0,0,35.024-5.5,37.629-4.921
			c2.605,0.579,20.552,9.263,23.157,9.842c2.605,0.579,4.921,1.737,4.921,1.737l3.927,3.286l-1.322-9.943
			c0,0-5.21-6.368-16.789-10.999c-11.578-4.631-17.367-2.026-19.973-1.158C361.649,361.194,332.703,372.483,332.703,372.483z"/>
		<path style="fill:#FFFFFF;stroke:#263238;stroke-miterlimit:10;" d="M278.882,346.066l91.041-0.282c0,0,29.314-2.819,30.441-3.1
			c1.128-0.282,12.684,2.819,13.811,3.664c1.127,0.846,1.127,3.382,0.564,5.919c-0.564,2.537-0.564,2.537-0.564,2.537
			s0.846,4.51,0.846,6.483c0,1.973-2.255,2.537-2.537,3.382c-0.282,0.846,1.691,3.946-0.564,5.919
			c-2.255,1.973-2.255,1.973-2.255,1.973s-0.282,5.355-1.409,6.765c-1.127,1.409-4.51,3.946-5.919,3.1s-0.845-3.1-0.845-4.51
			s-0.564-2.819-2.255-2.819c-1.691,0-1.973,1.409-10.711-0.845c-8.738-2.255-18.321-9.865-19.167-10.147
			c-0.846-0.282-77.23,20.294-99.779,23.112s-24.522-0.282-25.367-3.946c-0.846-3.664-2.255-12.402-2.255-12.402l-3.946-17.194
			L278.882,346.066z"/>
		<path style="fill:#92E3A9;stroke:#263238;stroke-miterlimit:10;" d="M338.055,240.706c0,0,4.702-4.949,7.672-2.722
			c2.97,2.227,5.692,14.106,9.404,13.116c3.712-0.99,11.136-24.005,11.136-33.161c0-9.156-6.434-14.601-7.919-15.096
			c-1.485-0.495-39.348-0.99-43.803,0.743s-6.187,17.323-7.919,26.727c-1.732,9.404,2.227,11.631,4.702,10.394
			c2.475-1.237,12.126-5.197,14.353-5.197C327.908,235.509,338.055,240.706,338.055,240.706z"/>
		<path style="fill:#FFFFFF;stroke:#263238;stroke-miterlimit:10;" d="M363.399,188.544c0,0-3.547,17.536-4.926,21.871
			c-1.379,4.335-11.428,17.536-13.99,20.295s-10.049,16.354-12.019,16.748c-1.97,0.394-7.487-18.127-7.487-18.127
			s-7.093-12.216-8.473-15.369c-1.379-3.153-3.547-12.413-3.547-12.413s11.625,10.049,24.039,7.882s18.719-14.581,18.719-14.581
			L363.399,188.544z"/>
		<g>
			<path style="fill:#FFFFFF;stroke:#263238;stroke-miterlimit:10;" d="M315.287,153.596c0,0-3.465-3.712-5.444,1.98
				c-1.98,5.692,1.98,15.838,1.98,15.838L315.287,153.596z"/>
			<path style="fill:#FFFFFF;stroke:#263238;stroke-miterlimit:10;" d="M315.913,142.043c0,0-5.714,40.59-5.714,42.954
				c0,2.365-1.576,10.246,0.788,15.369c2.364,5.123,9.458,11.428,15.172,12.216c5.714,0.788,16.945-0.394,23.25-5.32
				c6.305-4.926,13.595-15.566,13.595-15.566s7.882-1.182,13.005-3.35c5.123-2.167,9.064-7.093,8.867-12.216
				c-0.197-5.123-3.35-9.064-3.35-9.064l-2.956-5.517l7.882-14.778c0,0-4.532-8.473-19.113-16.551
				c-14.581-8.078-27.585-10.64-33.693-10.64c-6.108,0-13.793,2.562-15.96,7.487C315.519,131.994,315.913,142.043,315.913,142.043z"
				/>
			<path style="fill:#263238;stroke:#263238;stroke-miterlimit:10;" d="M334.632,122.142c0,0,11.231,18.521,19.704,17.733
				c8.473-0.788,11.034-4.729,11.034-4.729l5.714,7.684c0,0-6.108,2.561-4.926,5.714c1.182,3.153,6.502,10.246,6.502,10.246
				l-4.335,18.521c0,0,3.35,0.591,3.941-0.591c0.591-1.182,3.547-8.473,3.547-8.473s1.182-0.788,2.561-1.182
				c1.379-0.394,3.153,0,3.153,0s2.167-7.29,2.956-7.487c0.788-0.197,8.67-2.365,11.625-10.049
				c2.956-7.684-1.576-19.901-11.822-29.556c-10.246-9.655-31.92-12.216-33.102-13.99c-1.182-1.773,5.517,0.788,4.138-3.153
				c-1.379-3.941-10.049-9.064-21.083-3.547c-11.034,5.517-9.458,11.625-8.276,13.595c1.182,1.97,1.182,1.97,1.182,1.97
				s-9.261-3.153-15.763,0.788c-6.502,3.941-9.655,11.822-6.699,12.61c2.956,0.788,6.699-0.985,6.699-0.985
				s-3.941,6.502-2.758,7.881c1.182,1.379,7.29,6.896,7.29,6.896s2.364-13.793,7.29-15.763S334.632,122.142,334.632,122.142z"/>
			<polyline style="fill:none;stroke:#263238;stroke-miterlimit:10;" points="331.085,148.742 332.858,154.456 322.809,173.372 
				333.449,177.51 			"/>
			<path style="fill:#263238;stroke:#263238;stroke-miterlimit:10;" d="M329.115,146.575c0,0-4.729-3.744-8.67-2.759
				c-3.941,0.985-1.576,1.576,1.182,2.561C324.386,147.363,329.903,149.925,329.115,146.575z"/>
			<path style="fill:#263238;stroke:#263238;stroke-miterlimit:10;" d="M343.695,145.787c0,0-4.532,1.182-2.364,2.167
				c2.167,0.985,8.67-0.985,11.231,0c2.562,0.985,5.911,4.335,5.714,2.759c-0.197-1.576-1.773-4.729-5.32-5.911
				C349.409,143.619,343.695,145.787,343.695,145.787z"/>
			<path style="fill:#263238;" d="M326.509,155.319c-0.345,1.428-1.311,2.42-2.157,2.215c-0.846-0.204-1.252-1.528-0.907-2.956
				c0.345-1.428,1.311-2.42,2.157-2.215C326.448,152.568,326.854,153.891,326.509,155.319z"/>
			<path style="fill:#263238;" d="M347.986,160.935c-0.345,1.428-1.311,2.42-2.157,2.215c-0.846-0.205-1.252-1.528-0.907-2.956
				c0.345-1.428,1.311-2.42,2.157-2.215C347.925,158.184,348.331,159.507,347.986,160.935z"/>
			<line style="fill:none;stroke:#263238;stroke-miterlimit:10;" x1="316.701" y1="179.874" x2="324.78" y2="185.194"/>
		</g>
		<g>
			<path style="fill:#92E3A9;stroke:#263238;stroke-miterlimit:10;" d="M399.801,227.685c0,0,27.904,10.711,33.259,26.777
				c5.355,16.066-1.409,36.36-4.228,44.816s-20.294,41.434-23.112,49.326c-2.819,7.892-7.047,17.475-7.047,17.475
				s-3.946-23.676-14.657-38.333c-10.711-14.657-13.247-27.904-13.247-27.904s19.448-34.387,24.522-45.098"/>
			<path style="fill:#92E3A9;stroke:#263238;stroke-miterlimit:10;" d="M373.727,293.885c0,0,5.709-2.855,7.612-1.903
				c1.903,0.952,26.327,13.956,29.498,28.864c3.172,14.908-1.586,27.595-4.441,32.987c-2.855,5.392-8.247,15.859-12.37,17.128
				c-4.123,1.269-7.613-32.67-16.177-50.433C369.286,302.766,373.727,293.885,373.727,293.885z"/>
			<path style="fill:none;stroke:#263238;stroke-miterlimit:10;" d="M383.171,277.574c0,0,5.074-17.193,7.047-23.958"/>
		</g>
		<path style="fill:#FFFFFF;stroke:#263238;stroke-miterlimit:10;" d="M332.267,216.523c0,0-7.882-11.034-13.99-18.324
			c-6.108-7.29-12.413-11.625-14.581-11.034c-2.167,0.591-2.956,2.758-1.576,5.32c1.379,2.562,7.882,8.275,9.064,9.852
			c1.182,1.576,2.956,7.29,2.956,7.29s-5.714,0.394-6.699,1.576c-0.985,1.182-2.365,4.335-2.365,4.335s-1.97,0.985-2.955,2.562
			c-0.985,1.576-0.985,1.97-1.182,2.758c-0.197,0.788-2.956,2.167-2.758,5.714c0.197,3.547,3.547,8.67,4.729,11.034
			c1.182,2.364,9.852,12.807,11.428,14.581c1.576,1.773,10.64,17.536,13.004,22.856c2.364,5.32,25.221,66.992,31.92,76.253
			c6.699,9.261,19.113,18.127,25.812,21.28c6.699,3.153,11.428-2.167,14.581-8.867c3.153-6.699,5.911-20.098-0.197-35.467
			c-6.108-15.369-18.127-28.57-27.388-36.452c-9.261-7.882-26.6-27.585-28.57-31.132c-1.97-3.547-4.532-11.428-4.532-11.428
			s5.123-14.975,5.517-18.521c0.394-3.547-1.576-9.852-0.985-12.61s2.956-8.276,3.941-10.64c0.985-2.364,4.335-6.305,2.561-8.079
			c-1.773-1.773-9.064,0.394-11.625,4.532C335.814,208.05,332.267,216.523,332.267,216.523z"/>
		<g>
			<path style="fill:#92E3A9;stroke:#263238;stroke-miterlimit:10;" d="M271.365,259.194c0.596-3.131,1.034-5.297,1.034-5.297"/>
			<path style="fill:#92E3A9;stroke:#263238;stroke-miterlimit:10;" d="M269.581,226.839c0,0-14.939,1.973-30.441,18.603
				c-15.502,16.63-8.738,56.09-7.328,64.264c1.409,8.174,3.664,33.259,3.664,33.259l39.742-13.247c0,0-6.483-44.252-7.047-48.198
				c-0.285-1.994,0.798-9.028,1.939-15.498"/>
			<path style="fill:#92E3A9;stroke:#263238;stroke-miterlimit:10;" d="M231.53,334.228c0,0,3.946,21.139,5.919,22.267
				c1.973,1.128,32.696-7.328,36.078-7.892c3.382-0.564,5.355,0.282,5.355-2.537c0-2.819-2.819-16.066-4.51-18.321
				c-1.691-2.255-38.333,2.537-41.433,3.382C229.839,331.973,231.53,334.228,231.53,334.228z"/>
			<path style="fill:none;stroke:#263238;stroke-miterlimit:10;" d="M254.038,317.89c11.4,4.538,20.334,9.855,20.334,9.855
				s-9.583-18.039-13.529-21.703"/>
			<path style="fill:none;stroke:#263238;stroke-miterlimit:10;" d="M248.723,315.907c1.131,0.393,2.25,0.8,3.349,1.218"/>
		</g>
		<path style="fill:none;stroke:#263238;stroke-miterlimit:10;" d="M341.164,408.179c7.29-2.599,14-5.461,18.049-8.278"/>
		<path style="fill:none;stroke:#263238;stroke-miterlimit:10;" d="M306.787,418.222c0,0,15.573-3.694,30.351-8.652"/>
		<path style="fill:none;stroke:#263238;stroke-miterlimit:10;" d="M372.282,398.73c-7.658,3.816-19.789,9.405-29.699,11.882"/>
		<path style="fill:none;stroke:#263238;stroke-miterlimit:10;" d="M379.788,394.828c0,0-1.571,0.868-4.175,2.212"/>
	</g>
</g>
<g id="Bubble">
	<g>
		<path style="fill:#263238;stroke:#263238;stroke-miterlimit:10;" d="M116.122,37.139C49.05,69.447,36.326,164.315,78.867,221.333
			c8.892,11.918,20.516,21.967,34.282,27.804c47.021,19.937,84.67-19.699,107.583-56.114c36.58-58.136,41.152-72.507,40.499-62.708
			s16.33,20.25,26.129-31.355c12.525-65.966-79.829-80.967-126.577-74.755C145.109,26.287,129.928,30.489,116.122,37.139z"/>
		<path style="fill:#263238;stroke:#263238;stroke-miterlimit:10;" d="M280.175,147.298"/>
		<path style="fill:#263238;stroke:#263238;stroke-miterlimit:10;" d="M266.255,148.578c-3.933,7.101-3.667,14.77,0.593,17.13
			c4.26,2.36,10.902-1.484,14.835-8.585c3.933-7.101,3.667-14.77-0.593-17.13C276.83,137.634,270.188,141.477,266.255,148.578z"/>
		<path style="fill:#263238;stroke:#263238;stroke-miterlimit:10;" d="M288.693,158.578c-2.324,4.196-2.167,8.729,0.351,10.123
			s6.443-0.877,8.767-5.073c2.324-4.196,2.167-8.729-0.351-10.123C294.943,152.111,291.018,154.382,288.693,158.578z"/>
	</g>
	<g>
		<path style="fill:#FFFFFF;stroke:#263238;stroke-miterlimit:10;" d="M119.985,30.959C52.912,63.267,40.189,158.135,82.73,215.154
			c8.892,11.918,20.517,21.967,34.282,27.804c47.02,19.937,84.67-19.699,107.583-56.114c36.58-58.136,41.152-72.507,40.499-62.708
			c-0.653,9.798,16.33,20.249,26.129-31.355c12.525-65.966-79.829-80.967-126.577-74.755
			C148.972,20.107,133.79,24.309,119.985,30.959z"/>
		<path style="fill:#FFFFFF;stroke:#263238;stroke-miterlimit:10;" d="M284.037,141.118"/>
		<path style="fill:#FFFFFF;stroke:#263238;stroke-miterlimit:10;" d="M270.117,142.398c-3.933,7.101-3.667,14.77,0.593,17.13
			c4.26,2.36,10.902-1.484,14.835-8.585c3.933-7.101,3.667-14.77-0.593-17.13C280.692,131.454,274.05,135.297,270.117,142.398z"/>
		<path style="fill:#FFFFFF;stroke:#263238;stroke-miterlimit:10;" d="M292.556,152.399c-2.324,4.196-2.167,8.729,0.351,10.123
			c2.518,1.395,6.443-0.877,8.767-5.073c2.324-4.196,2.167-8.729-0.351-10.123C298.805,145.931,294.88,148.202,292.556,152.399z"/>
	</g>
</g>
<g id="Gears">
	<g>
		<path style="fill:#CCCCCC;" d="M84.57,102.453v-13.21h8.045c0.388-2.212,0.956-4.361,1.708-6.424l-6.951-4.013l6.605-11.44
			l6.967,4.023c1.427-1.699,2.999-3.27,4.698-4.696l-4.021-6.964l11.44-6.605l4.015,6.955c2.063-0.751,4.213-1.319,6.424-1.706
			V50.33h13.21v8.045c2.212,0.388,4.361,0.956,6.424,1.708l4.013-6.951l11.44,6.605l-4.023,6.967
			c1.699,1.427,3.27,2.999,4.696,4.698l6.964-4.021l6.605,11.44l-6.955,4.015c0.751,2.063,1.319,4.212,1.705,6.424h8.042v13.21
			h-8.045c-0.388,2.212-0.956,4.361-1.708,6.424l6.951,4.013l-6.605,11.44l-6.967-4.023c-1.427,1.699-2.999,3.27-4.698,4.697
			l4.021,6.964l-11.44,6.605l-4.015-6.955c-2.063,0.751-4.212,1.319-6.424,1.705v8.042h-13.21v-8.045
			c-2.212-0.388-4.361-0.956-6.424-1.708l-4.014,6.952l-11.44-6.605l4.023-6.967c-1.699-1.427-3.27-2.999-4.697-4.698l-6.964,4.021
			l-6.605-11.44l6.955-4.015c-0.751-2.063-1.319-4.212-1.705-6.424H84.57z M130.097,120.471c13.594,0,24.614-11.02,24.614-24.614
			c0-13.594-11.02-24.614-24.614-24.614c-13.594,0-24.614,11.02-24.614,24.614C105.483,109.451,116.503,120.471,130.097,120.471z"/>
		<path style="fill:#CCCCCC;" d="M103.315,180.085v-10.739h6.54c0.315-1.798,0.778-3.545,1.389-5.222l-5.651-3.263l5.369-9.3
			l5.664,3.27c1.16-1.381,2.438-2.658,3.82-3.818l-3.269-5.661l9.3-5.369l3.264,5.654c1.677-0.61,3.424-1.072,5.223-1.386v-6.537
			h10.739v6.54c1.798,0.315,3.545,0.777,5.222,1.389l3.263-5.651l9.3,5.369l-3.27,5.664c1.381,1.16,2.658,2.438,3.818,3.82
			l5.661-3.269l5.369,9.3l-5.654,3.264c0.61,1.677,1.072,3.424,1.386,5.223h6.537V180.1h-6.54c-0.315,1.798-0.777,3.545-1.389,5.222
			l5.651,3.263l-5.369,9.3l-5.664-3.27c-1.16,1.381-2.438,2.658-3.82,3.818l3.269,5.661l-9.3,5.369l-3.264-5.654
			c-1.677,0.61-3.424,1.072-5.223,1.386v6.537h-10.739v-6.54c-1.798-0.315-3.545-0.777-5.222-1.389l-3.263,5.651l-9.3-5.369
			l3.27-5.664c-1.381-1.16-2.658-2.438-3.818-3.82l-5.661,3.269l-5.369-9.3l5.654-3.264c-0.611-1.677-1.072-3.424-1.386-5.223
			H103.315z M140.326,194.732c11.051,0,20.009-8.958,20.009-20.009c0-11.051-8.958-20.009-20.009-20.009
			c-11.051,0-20.009,8.958-20.009,20.009C120.316,185.774,129.275,194.732,140.326,194.732z"/>
		<path style="fill:#CCCCCC;" d="M171.549,155.537v-8.18h4.982c0.24-1.37,0.592-2.701,1.058-3.978l-4.305-2.485l4.09-7.084
			l4.314,2.491c0.884-1.052,1.857-2.025,2.909-2.908l-2.49-4.312l7.084-4.09l2.486,4.307c1.277-0.465,2.608-0.817,3.978-1.056
			v-4.979h8.18v4.982c1.369,0.24,2.701,0.592,3.978,1.058l2.485-4.304l7.084,4.09l-2.491,4.314c1.052,0.884,2.025,1.857,2.908,2.909
			l4.312-2.49l4.09,7.084l-4.307,2.486c0.465,1.277,0.817,2.609,1.056,3.978h4.98v8.18h-4.982c-0.24,1.37-0.592,2.701-1.058,3.978
			l4.305,2.485l-4.09,7.084l-4.314-2.491c-0.884,1.052-1.857,2.025-2.909,2.908l2.49,4.312l-7.084,4.09l-2.486-4.307
			c-1.277,0.465-2.608,0.817-3.978,1.056v4.98h-8.18v-4.982c-1.37-0.24-2.701-0.592-3.978-1.058l-2.485,4.305l-7.084-4.09
			l2.491-4.314c-1.052-0.884-2.025-1.857-2.908-2.909l-4.312,2.49l-4.09-7.084l4.307-2.486c-0.465-1.277-0.817-2.608-1.056-3.978
			H171.549z M199.74,166.695c8.418,0,15.241-6.824,15.241-15.241c0-8.418-6.824-15.241-15.241-15.241
			c-8.417,0-15.241,6.824-15.241,15.241C184.499,159.871,191.322,166.695,199.74,166.695z"/>
		<path style="fill:#CCCCCC;" d="M200.683,79.868v-8.18h4.982c0.24-1.37,0.592-2.7,1.058-3.978l-4.305-2.485l4.09-7.084l4.314,2.491
			c0.884-1.052,1.857-2.025,2.909-2.908l-2.49-4.312l7.084-4.09l2.486,4.306c1.278-0.465,2.609-0.817,3.978-1.056v-4.979h8.18v4.981
			c1.37,0.24,2.701,0.592,3.978,1.058l2.485-4.305l7.084,4.09l-2.491,4.314c1.052,0.884,2.025,1.857,2.908,2.909l4.312-2.49
			l4.09,7.084l-4.307,2.486c0.465,1.277,0.817,2.608,1.056,3.978h4.979v8.18h-4.982c-0.24,1.37-0.592,2.701-1.058,3.978l4.304,2.485
			l-4.09,7.084l-4.314-2.491c-0.884,1.052-1.857,2.025-2.909,2.908l2.49,4.312l-7.084,4.09l-2.486-4.307
			c-1.277,0.465-2.608,0.817-3.978,1.056v4.979h-8.18v-4.982c-1.37-0.24-2.701-0.592-3.978-1.058l-2.485,4.305l-7.084-4.09
			l2.491-4.314c-1.052-0.884-2.025-1.857-2.908-2.909l-4.312,2.49l-4.09-7.084l4.307-2.486c-0.465-1.277-0.817-2.608-1.056-3.978
			H200.683z M228.874,91.025c8.417,0,15.241-6.824,15.241-15.241s-6.824-15.241-15.241-15.241s-15.241,6.824-15.241,15.241
			S220.456,91.025,228.874,91.025z"/>
	</g>
</g>
</svg>
